<?xml version='1.0' encoding='utf-8'?>
<svg xmlns="http://www.w3.org/2000/svg" data-name="Layer 1" viewBox="0 0 1e3 1e3"> <defs> <style>.cls-1 { fill: #e39f76; } .cls-2 { fill: #a52327; } .cls-3 { fill: #fcb221; } .cls-4 { fill: #2c110b; } .cls-5 { fill: #e9f3ff; } .cls-6 { fill: #c4291d; } .cls-7 { fill: #f38f61; } .cls-8 { fill: #f4891f; } .cls-9 { fill: #3e4e7b; } .cls-10 { fill: #ffd8bc; } .cls-11 { fill: #1d5bb7; } .cls-12 { fill: #e9351e; } .cls-13 { fill: #a3c5ee; } .cls-14 { fill: #262b49; } .cls-15 { fill: #181b2f; } .cls-16 { fill: #f9c5a4; } .cls-17 { fill: #f15b1f; }</style> </defs> <g data-name="Generative Object"> <path class="cls-9" d="M681.19,138.57c-9.68-9.36-32.38-19.67-43.05-30.06l30.75,38.95c-1.94,4.07-35.56-17.27-37.58-21.18,4.47,12.74,14.5,22.85,23.91,32.11.69,7.81-27.59-11.58-29.38-12.98-9.17-7.17-17.82-18.87-25.96-27.33,6.64,21.11,17.98,42.04,36.21,55.34-29.21,1.24-41.25-35.75-63.54-49.88l43.05,66.28c-27.1-5.3-46.96-32.79-64.91-52.61l36.9,64.23c-28.39-16.11-48.55-42.75-69.69-66.96-20.25,22.05-39.5,45.2-61.49,65.59-29.02,26.91-66.3,59.17-106.59,61.49,50.34-20.45,92.2-58.5,122.3-103.17-32.18,24.58-60.64,55-99.07,70.38l64.91-81.31c-7.74,2.72-68.97,62.8-73.79,54.66l51.25-74.48-58.76,53.29c-4.62-.29,2.4-12.35,3.42-14.35,8.35-16.36,24.74-32.05,33.48-48.51l-63.54,47.83c63.71-144.08,267.65-157.55,351.2-27.33Z"/> <path class="cls-15" d="M580.07,556.73c-.63-5.46-1.9-10.83-1.37-16.4,26.01-17.27,42.86-35.8,60.13-61.49,8.72-5.06,14.15-18.98,19.13-28.01,5.43-3.24,5.85,28.04,5.47,31.43-2.11,18.47-14.66,37.02-29.38,49.88-5.13,4.48-45.69,30.58-49.2,30.06-3.55-.53-.9-4.71-4.78-5.47Z"/> <path class="cls-14" d="M681.19,138.57c43.53,42.11,27.53,145.46,58.76,193.36,18.28,28.05,35.78,38.18,45.1,75.16,31.42,124.68-95.19,193.31-202.25,159.2-.15-.96-2.07-3.83-2.73-9.57,3.88.76,1.23,4.94,4.78,5.47,3.5.52,44.07-25.59,49.2-30.06,14.72-12.86,27.27-31.41,29.38-49.88.39-3.39-.03-34.67-5.47-31.43-4.98,9.03-10.41,22.95-19.13,28.01,25.94-38.6,49.99-113.37,43.73-159.88-.28-2.05.73-5.34-.68-6.83-70-19.36-121.5-75.24-161.93-132.55-1.85-4.31-3.17-8.53-6.15-12.3-2.58-.38-6.19,10.44-7.52,12.3-40.49,56.94-91.15,112.32-160.57,132.55-2.84,2.38-1.54,2.96-2.05,5.47-2.38,11.74,4.17,59.27,6.83,73.11,11.43,59.38,46.65,115.93,97.02,149.64-.17,1.77.26,3.74,0,5.47-1,6.72-3.14,14.42-4.1,20.5-108.19,33.6-232.46-33.56-202.25-159.2,8.69-36.13,27.28-47.61,45.1-75.16,23.33-36.08,16.29-67.67,24.6-107.96,3.99-19.33,11.15-40.03,19.13-58.08l63.54-47.83c-8.74,16.46-25.13,32.15-33.48,48.51-1.02,2-8.04,14.06-3.42,14.35l58.76-53.29-51.25,74.48c4.82,8.14,66.05-51.94,73.79-54.66l-64.91,81.31c38.44-15.37,66.89-45.8,99.07-70.38-30.11,44.68-71.97,82.72-122.3,103.17,40.29-2.32,77.57-34.58,106.59-61.49,21.99-20.39,41.25-43.55,61.49-65.59,21.15,24.21,41.3,50.85,69.69,66.96l-36.9-64.23c17.95,19.83,37.81,47.31,64.91,52.61l-43.05-66.28c22.3,14.13,34.34,51.12,63.54,49.88-18.24-13.3-29.57-34.23-36.21-55.34,8.15,8.46,16.79,20.16,25.96,27.33,1.79,1.4,30.07,20.8,29.38,12.98-9.41-9.27-19.44-19.37-23.91-32.11,2.02,3.92,35.64,25.25,37.58,21.18l-30.75-38.95c10.67,10.4,33.37,20.7,43.05,30.06Z"/> <path class="cls-1" d="M683.92,428.28c-1.97,1.15-18.84,9.99-19.13,4.78,11.06-21.23,15.04-45.09,21.86-67.64,6.18-.41,8.03-8.84,15.72-6.83,20.9,5.46-8.24,61.07-18.45,69.69Z"/> <path class="cls-1" d="M338.19,365.42c7.4,10.12,14.66,56.18,21.18,69.69-5.79-1.14-9.27-3.09-14.35-5.47-13.81-15.08-32.91-42.05-27.33-63.54,2.7-10.39,15.47-7.56,20.5-.68Z"/> <path class="cls-10" d="M338.19,365.42c-5.03-6.88-17.8-9.7-20.5.68-5.58,21.5,13.52,48.46,27.33,63.54-22.15-10.34-41.54-40.25-36.9-64.91,3.79-20.13,32.2-26.01,30.06.68Z"/> <path class="cls-10" d="m683.92 428.28c10.21-8.62 39.34-64.23 18.45-69.69-7.68-2.01-9.53 6.43-15.72 6.83 3.3-10.9 1.15-20.73 17.08-17.76 5.7 1.06 13.3 11.52 14.35 17.08 4.48 23.78-14.12 51.84-34.16 63.54z"/> <path class="cls-15" d="M362.79,488.41c-.08-1.01-1.15-6.3-1.37-6.83l4.78-31.43c13.92,25.15,30.25,49.28,50.56,69.69,13.14,13.21,36.2,17.62,23.23,41-32.7-14.42-66.25-36.26-77.21-72.43Z"/> <path class="cls-3" d="M361.42,481.57c.22.53,1.29,5.82,1.37,6.83,2.91,36.22-45.79,36.89-50.56,10.25-6.16-34.38,39.02-42.28,49.2-17.08Z"/> <path class="cls-3" d="m683.24 466.54c35.39-5.49 40.11 45.37 12.3 50.56-38.73 7.24-41.65-46.01-12.3-50.56z"/> <path class="cls-9" d="m520.62 142.67c30.81 59.55 77.14 112.48 140.07 138.7-68.63-9.57-120.24-76.5-140.07-138.7z"/> <path class="cls-9" d="m491.24 180.94c-25.64 47.45-85.73 105.82-139.39 118.21 55.15-27.7 101.35-70.01 139.39-118.21z"/> <path class="cls-9" d="M491.24,180.94c.64-1.19.46-5.87,3.42-5.47.9,2.94-2.32,4.07-3.42,5.47Z"/> <path class="cls-17" d="M485.78,917.5c.41.59.95,2.15,1.37,2.73-6.4,4.07-10.46,18.51-15.03,22.55-4.4,3.88-9-.35-9.57,4.78-70.23-4.2-141.41-19.38-207.71-42.36-23.24-61.14-49.42-121.76-83.36-177.65,20.71-34.96,105.83-52.82,144.85-62.86,2.69,9.19,9.68,18.71,15.03,26.65,50.92,75.64,102.2,151.43,154.42,226.16Z"/> <path class="cls-17" d="M823.31,783.58c-19.22,38.88-36.03,79.39-50.56,120.25-58.57,20.56-112.82,33.25-174.92,39.63l-36.9-54.66c.06-.42.02-.93,0-1.37l94.29-139.39h1.37c47.34,36.58,110.84,26.41,166.72,35.53Z"/> <path class="cls-12" d="m854.74 727.55c-11.37 17.9-22.04 37.03-31.43 56.03-55.88-9.12-119.38 1.05-166.72-35.53l53.29-83.36c39.16 9.92 123.93 27.93 144.85 62.86z"/> <path class="cls-6" d="m254.83 905.2c-41.51-14.39-82.68-32.51-120.25-55.34 10-37.73 16.95-88.64 36.9-122.3 33.94 55.89 60.12 116.51 83.36 177.65z"/> <path class="cls-6" d="m772.75 903.83c14.54-40.87 31.35-81.37 50.56-120.25 9.39-19 20.06-38.13 31.43-56.03 19.98 33.35 27.16 84.77 36.9 122.3-36.95 23.56-77.75 39.53-118.89 53.98z"/> <path class="cls-17" d="M362.79,656.49c31.11,48.95,65.7,95.64,98.39,143.49,3.27,4.79,6.21,10.12,9.57,15.03,14.11,20.67,26.82,42.88,43.73,61.49-.4.62,4.86,6.01-2.73,2.05.25,6.59-11.88,17.95-12.3,22.55l-163.98-241.88c8.6-2.12,20.06-8.55,27.33-2.73Z"/> <path class="cls-3" d="M499.44,901.1c-.07.83-.18,2.04,0,2.73l-13.67,13.67c-52.22-74.73-103.49-150.52-154.42-226.16-5.35-7.94-12.34-17.46-15.03-26.65,6.41-1.65,12.81-3.91,19.13-5.47l163.98,241.88Z"/> <path class="cls-12" d="m689.39 659.22-49.2 73.79c-5.39-6.77-9.23-14.95-13.67-21.86 5.08-7.29 35.32-54.34 38.26-56.03 6.12-3.51 17.74 2.49 24.6 4.1z"/> <path class="cls-8" d="m709.89 664.69-53.29 83.36h-1.37l-15.03-13.67v-1.37l49.2-73.79c6.8 1.59 13.68 3.74 20.5 5.47z"/> <path class="cls-8" d="M499.44,903.83c2.05,8.08,29.03,32.69,30.06,45.1-6.8.13-13.69.03-20.5,0-8.68-8.45-14.96-18.87-21.86-28.7-.41-.59-.95-2.14-1.37-2.73l13.67-13.67Z"/> <path class="cls-12" d="M509.01,948.93c-14.68-.07-31.86-.49-46.46-1.37.56-5.14,5.16-.9,9.57-4.78,4.58-4.04,8.63-18.48,15.03-22.55,6.9,9.83,13.18,20.24,21.86,28.7Z"/> <path class="cls-3" d="M655.23,748.05l-94.29,139.39c-.04-1.18-8.99-15.94-12.3-16.4.08-.41,0-.94,0-1.37l91.56-135.29,15.03,13.67Z"/> <path class="cls-8" d="M560.93,887.43c.02.44.06.94,0,1.37-.25,1.74-19.31,28.21-21.86,26.65-22.12-20.64,7.03-30.53,9.57-44.41,3.31.45,12.26,15.22,12.3,16.4Z"/> <path class="cls-5" d="m405.15 608.66 95.66 133.24-39.63 58.08c-32.69-47.85-67.28-94.53-98.39-143.49 7.4-13.09 20.73-32.06 31.43-43.05 3.6-3.7 5.21-7.49 10.93-4.78z"/> <path class="cls-11" d="M436.58,600.46c-1.22,4.55-6.29,11.51-5.47,15.72,24.55,31.49,46.43,64.92,71.06,96.34,1.54,1.97,7.94,15.03,10.25,15.03,19.48-25.53,38.41-51.51,56.71-77.89,3.39-4.89,25.64-32.7,25.96-34.85.14-.96-4.59-12.42-5.47-15.72,7.95,1.36,22.37-1.85,29.38,0,1.37.36,3.86,4.75,4.78,5.47-10.32,15.45-21.83,30.12-32.8,45.1-40.26,54.96-79.65,110.63-120.25,165.35-3.35-4.91-6.29-10.24-9.57-15.03l39.63-58.08-95.66-133.24c-9.51-13.79,23.06-9.9,31.43-8.2Z"/> <path class="cls-13" d="m664.79 655.12c-2.94 1.69-33.18 48.74-38.26 56.03-12.81-19.96-26.79-38.61-35.53-61.49 10.97-14.98 22.48-29.65 32.8-45.1 13.72 10.75 29.13 36.79 41 50.56z"/> <path class="cls-5" d="m626.53 711.15c-31.35 44.98-61.1 91.07-91.56 136.65-6.48 9.69-14.18 18.79-20.5 28.7-16.91-18.62-29.62-40.82-43.73-61.49 40.6-54.72 79.99-110.39 120.25-165.35 8.74 22.89 22.72 41.54 35.53 61.49z"/> <path class="cls-17" d="M640.19,733.02v1.37l-91.56,135.29c-.09-3.88-10.61-18.07-13.67-21.86,30.46-45.58,60.21-91.67,91.56-136.65,4.43,6.91,8.27,15.09,13.67,21.86Z"/> <path class="cls-12" d="M548.64,869.67c0,.43.08.95,0,1.37-2.53,13.88-31.69,23.78-9.57,44.41,2.55,1.57,21.61-24.91,21.86-26.65l36.9,54.66c-22.67,2.33-45.49,5.03-68.33,5.47-1.03-12.41-28.02-37.01-30.06-45.1-.18-.7-.07-1.91,0-2.73.41-4.6,12.55-15.96,12.3-22.55,7.59,3.96,2.34-1.43,2.73-2.05,6.32-9.9,14.02-19.01,20.5-28.7,3.05,3.79,13.58,17.99,13.67,21.86Z"/> <path class="cls-7" d="M541.12,917.5c.73-.25,7.27,8.56,5.47,10.93-.93-.93-7.92-10.1-5.47-10.93Z"/> <path class="cls-10" d="M559.57,645.56l-57.39,66.96c-24.63-31.43-46.51-64.85-71.06-96.34-.82-4.21,4.25-11.17,5.47-15.72,3.43-12.82,4.83-21.53,6.83-34.16.96-6.08,3.1-13.78,4.1-20.5,31.22,41.31,65.07,76.49,112.06,99.76Z"/> <path class="cls-1" d="M578.7,540.33c-.53,5.57.73,10.94,1.37,16.4.67,5.74,2.58,8.6,2.73,9.57,2.16,14.04,3.14,18.86,6.83,32.8.87,3.29,5.61,14.76,5.47,15.72-.32,2.15-22.57,29.95-25.96,34.85-3.45-.49-6.52-2.59-9.57-4.1-46.99-23.26-80.83-58.45-112.06-99.76.26-1.73-.17-3.69,0-5.47,54.56,36.5,76.6,36.25,131.19,0Z"/> <path class="cls-1" d="M406.52,298.46c-19.29,10.08-40.99,17.76-62.86,19.13.51-2.5-.79-3.09,2.05-5.47,69.42-20.23,120.07-75.62,160.57-132.55-14.86,47.08-55.91,95.97-99.76,118.89Z"/> <path class="cls-1" d="M682.56,318.96l-58.76-17.76c-.4-.25-1.21-.4-2.73-1.37-52.33-33.09-76.95-63.76-101.12-120.25,40.43,57.31,91.94,113.2,161.93,132.55,1.41,1.5.41,4.78.68,6.83Z"/> <path class="cls-16" d="m569.13 649.66c-18.3 26.38-37.23 52.36-56.71 77.89-2.31 0-8.71-13.06-10.25-15.03l57.39-66.96c3.05 1.51 6.11 3.61 9.57 4.1z"/> <path class="cls-10" d="M519.94,179.57c24.17,56.5,48.79,87.16,101.12,120.25-15.92-5.57-59.34-7.31-55.34,17.76,24.12-8.21,47.48-18.3,72.43-6.83-3.19-5.04-9.51-6.52-14.35-9.57l58.76,17.76c6.26,46.52-17.79,121.28-43.73,159.88-17.26,25.7-34.12,44.22-60.13,61.49-54.59,36.25-76.63,36.5-131.19,0-50.37-33.7-85.6-90.26-97.02-149.64-2.66-13.84-9.21-61.37-6.83-73.11,21.87-1.37,43.57-9.05,62.86-19.13-.93.29-14.34,8.88-15.72,10.93,25.29-9.31,46.42.94,70.38,7.52,4.07-23.62-40.56-22.79-54.66-18.45,43.85-22.91,84.9-71.81,99.76-118.89,1.32-1.86,4.94-12.68,7.52-12.3,2.98,3.77,4.3,7.98,6.15,12.3Z"/> <path class="cls-4" d="m590.32 340.82c30.02-6.33 30.04 18.91 53.98 18.45-20.72 14.72-22.52-9.6-43.05-10.25 20.7 34.11-28.58 54.34-26.65 11.62l-6.83 1.37c4.09-7.16 14.5-19.48 22.55-21.18z"/> <path class="cls-4" d="M418.13,340.82c18.02-3.35,33.72,5.92,40.31,22.55l-5.47-2.73c2.04,31.42-34.85,33.03-32.8,0,.2-3.21,6.84-8.7,3.42-11.62-17.56,1.53-22.51,23.88-40.31,10.25,16.27,3.07,20.7-15.82,34.85-18.45Z"/> <path class="cls-4" d="m406.52 298.46c14.1-4.34 58.74-5.18 54.66 18.45-23.96-6.57-45.09-16.83-70.38-7.52 1.38-2.05 14.78-10.65 15.72-10.93z"/> <path class="cls-4" d="M621.06,299.82c1.53.96,2.34,1.12,2.73,1.37,4.84,3.05,11.15,4.53,14.35,9.57-24.95-11.47-48.31-1.38-72.43,6.83-3.99-25.07,39.42-23.33,55.34-17.76Z"/> <path class="cls-1" d="M511.06,403.68v50.56c-2.23-1.69-15.4-8.76-15.72-10.25-.45-2.12,14.18-35.01,15.72-40.31Z"/> <path class="cls-2" d="m474.16 474.74 23.23 5.47 56.71-3.42c-14.14 38.44-70.88 39.44-79.94-2.05z"/> <path class="cls-2" d="M480.99,482.94c13.41,5.67,27.8,8.15,42.36,6.83,6.65-.6,16.01-6.79,22.55-4.78-13.77,23.51-54.53,24.17-64.91-2.05Z"/> </g> </svg>